<?xml version="1.0" encoding="UTF-8"?>
<svg id="Layer_1" data-name="Layer 1" xmlns="http://www.w3.org/2000/svg" viewBox="0 0 1130.22 500">
  <defs>
    <style>
      .cls-1 {
        fill: #fff;
      }
    </style>
  </defs>
  <g id="_4765" data-name="4765">
    <path id="_5" data-name="5" class="cls-1" d="M1109.1,252.57l-38.79-40.48h-97.06l11.38-131.19h60.22l-2.3,26.26c-.42,4.76,3.14,8.66,7.9,8.66h61.85c4.76,0,9-3.9,9.42-8.66l8.47-96.77c.42-4.76-3.14-8.66-7.9-8.66h-201.24c-4.76,0-9,3.9-9.42,8.66l-5.41,61.85-18.3,210.36c-.42,4.76,3.14,8.66,7.9,8.66h129.74l-11.33,129.56h-59.22l2.17-24.76c.42-4.76-3.14-8.66-7.9-8.66h-61.85c-4.76,0-9,3.9-9.42,8.66l-5.79,64.46,39.8,39.48h139.86l39.01-39.59,18.23-207.84Z"/>
    <path id="_6" data-name="6" class="cls-1" d="M777.89,211.98h-96.27l11.59-129.56h59.21l-2.45,25.1c-.42,4.76,3.14,8.66,7.9,8.66h64.75c4.76,0,9-3.9,9.42-8.66l5.61-66.86L795.62,0h-134.65l-44.79,40.66-36.25,419.5,36.77,39.66,144.09.18,39.98-39.84,19.53-206.9-42.41-41.28ZM723.27,420.82h-59.87l11.29-129.09h59.87l-11.29,129.09Z"/>
    <path id="_7" data-name="7" class="cls-1" d="M528.02.36h-200.09c-4.76,0-9,3.9-9.42,8.66l-8.66,98.98c-.42,4.76,3.14,8.66,7.9,8.66h61.85c4.76,0,9-3.9,9.42-8.66l2.49-25.57h59.06l-36.03,408.92c-.42,4.76,3.14,8.66,7.9,8.66h63.59c4.76,0,9-3.9,9.42-8.66L535.91,9.09v-.08c.42-4.76-3.13-8.66-7.89-8.66Z"/>
    <path id="_4" data-name="4" class="cls-1" d="M252.4,210.46h-23.96L246.06,9.09c.42-4.76-3.14-8.66-7.9-8.66h-61.85c-4.76,0-9,3.9-9.42,8.66l-17.62,201.37h-63.9l14.23-162.63c.42-4.76-3.14-8.66-7.9-8.66H29.84c-4.76,0-9,3.9-9.42,8.66L.03,280.88c-.41,4.66,2.99,8.48,7.6,8.64.43.07.87.11,1.33.11h133.38l-17.65,201.71c-.42,4.76,3.14,8.66,7.9,8.66h61.85c4.76,0,9-3.9,9.42-8.66l17.65-201.71h23.96c4.76,0,9-3.9,9.42-8.66l5.41-61.85c.42-4.76-3.14-8.66-7.9-8.66Z"/>
  </g>
</svg>