<?xml version="1.0" encoding="UTF-8"?>
<svg id="Layer_1" data-name="Layer 1" xmlns="http://www.w3.org/2000/svg" viewBox="0 0 1236.1 1006.06">
  <defs>
    <style>
      .cls-1 {
        fill: #70cd35;
      }
    </style>
  </defs>
  <path id="logo" class="cls-1" d="M68.38,955.17c-8.7-39.69,48.96-50.67,57.39-14.55,9.52,40.8-49.9,48.73-57.39,14.55h0ZM186.14,799.36c36.38-9.33,46.73,43.73,15.37,53.07-37.97,11.31-51.81-43.72-15.37-53.07h0ZM54.21,661.89c44.39-13.31,64.35,57.32,17.85,68.47-45.11,10.81-62.92-54.95-17.85-68.47h0ZM1033.24,942.51c-12.91,59.16-102.97,37.95-87.43-20.92,5.5-20.81,26.72-38.25,54.06-32.01,20.65,4.72,39.17,26.34,33.36,52.93h0ZM1061.32,422.68c25.15-7.7,44.31,9.37,49.43,27.1,7.22,25.01-8.69,44.4-26.35,49.78-51.29,15.62-75.46-60.85-23.08-76.88h0ZM1140.24,239.34c58.2-15.37,80.27,70.99,22.71,86.6-27.32,7.41-49.28-11.24-54.68-31.8-7.22-27.49,11.14-49.3,31.97-54.8h0ZM1161.16,584.99c22.94-4.59,42.55,12.96,46.09,31.02,4.89,24.91-11.3,43.82-31.45,47.88-49.89,10.06-70.46-67.72-14.64-78.9h0ZM540.21,176.93c2.27,1.72-.15,166.84.09,176.84,1.35,56.9-9.54,165.13,12,211.23,15.49,33.14,52.29,39.91,78.83,23.62,40.44-24.82,29.31-122.83,29.79-171.92.2-20.55,1.55-223,0-241.42,17.63,11.8,29.58,31.75,42.63,46.67,12.87,14.72,30.5,34.36,54.94,34.36s49.6-20.68,49.6-44.65c0-33.67-16.31-41.94-41.75-67.38l-37.2-37.21c-5.35-5.41-8.97-7.42-14.1-12.36-17.4-16.75-33.29-33.35-50.4-50.47-4.31-4.31-8.45-7.94-12.38-12.41-10.22-11.6-27.31-31.82-44.25-31.82-19.75,0-29.02,2.51-44.17,15.36-6.4,5.43-20.52,19.46-25.53,25.73-13.15,16.48-108.03,103.65-128.52,129.43-9.76,12.29-15.09,18.51-15.09,39.47,0,38.27,43.83,59.36,79.09,36.11,21.12-13.92,38.74-42.89,56.88-60.53,3.65-3.55,7.14-5.37,9.54-8.65h0ZM273.78,628.77c-14.4,15.35-33.95,34.7-37.54,38.27-13.99,13.91-9.45,15.21-22.62,15.4-49.89.74-38.58-.11-88.57-.11-14.76-63.33-97.46-64.55-119.57-12.09-17.66,41.9,9.66,82.89,50.06,88.33,34.67,4.66,62.84-19.49,69.51-48.13h78.54c45.83,0,25.96,2.73,67.38-38.45,4.49-4.46,8.42-9.17,12.88-13.24,6.13,15.51,13.48,30.41,21.95,44.88-18.63,18.9-39.03,39.73-41.51,42.7-8.37,10.01-29.3,27.03-35.89,36.87-50.91-34.09-90.95,6.86-90.95,39.68,0,79.82,110.79,75.61,110.79,1.65,0-7.85-1.85-11.95-3.31-18.19,6.15-4.12,46.93-47.66,76.68-78.01,7.88,11.35,16.44,22.46,25.63,33.45,10.52,12.57,22.24,22.73,34.39,33.35-41.94,44.53-115.79,121.35-121.53,128.91-7.09,9.35-12.73,6.32-31.71,6.32-25.91,0-51.81,0-77.72,0-1.6-19.22-28.16-39.68-52.91-39.68-30.71,0-57.87,24.32-57.87,54.56,0,53.03,53,76.21,92.63,47.98,7.94-5.66,19.52-19.9,19.81-33.1h109.13c5.43,0,22.22-20.86,28.11-24.8l113.52-123.22c1.56,1.13,3.09,2.24,4.58,3.34,7.59,5.61,15.22,9.85,23.31,14.72,31.74,19.14,69.29,32.73,113.69,40.09,42.15,6.98,98.93,4.21,137.43-5.79,21.12-5.48,10.8-8.2,44.55,25.55,30.3,30.31,40.42,36.87,59.52,56.22,11.66,11.8,6.67,9.57,28.52,9.51h105.83c5.69,24.42,31.92,46.72,59.53,49.6,25.8,2.7,46.04-1.84,62.17-21.91,61.09-76.02-38.41-165.39-103.98-102.57-9.24,8.85-16.95,21.92-19.71,34.86-1.19,5.6.05,11.91-6.28,11.91h-99.21c-10.72,0-24.75-19.38-33.32-26.21l-52.67-51.51c23.27-1.94,87.49-46.7,104.57-64.09,10.59-10.77,17.97-16.02,28.88-29,17.51-20.82,31.79-42.27,44.58-67.86,10.97-21.94,28.1-60.23,28.66-85.43,8.19,5.49,13.49,13.54,21.1,20.24,4.65,4.1,20.98,19.89,22.17,20.65,3.81,2.4,10.59.44,16.21.42l109.18.03c7.73,14.6,9.99,22.9,23.36,32.85,69.09,51.41,147.23-40.17,91.17-101.09-5.34-5.8-13.24-10.14-20.8-13.93h0c-31.61-15.86-71.03-1.29-87.68,28.69-3.71,6.68-7.71,15.76-7.71,25.36h-109.13c-4.71,0-21.98-17.96-26.9-22.7-8.7-8.37-15.3-17.93-26.01-23.6,0-48.65-8.27-82.87-8.27-94.25h76.06c.29,12.98,12.57,29.39,20.32,35.9,68.14,57.29,152.55-40,95.03-96.69-16.27-16.03-28.29-21.89-54.17-21.89s-60.56,25.41-61.18,52.92h-81.02c-5.9,0-4.99-4.83-6.47-10.07-1.33-4.71-2.42-7.46-4.07-12.46-12.53-37.86-17.44-15.69,30.71-87.93,3.19-4.8,36.87-59.86,42.66-59.86h90.12c0,67.56,71.48,105.04,122.77,59.94,17.77-15.62,22.74-35.16,22.74-59.94,0-35.43-34.54-66.14-69.45-66.14-25.12,0-45.25,9.78-59.94,27.7-2.68,3.27-5.22,6.54-7.11,10.33h-114.01c-5.21,0-9.16,8.75-11.9,12.9l-29.77,44.64c-7.46,11.2-32.96,53.96-41.01,59.86-5.2-3.81-10.05-16.78-13.21-23.16-4.11-8.27-8.84-16.18-14.41-23.63-21.4-28.63-67.94-36.35-95.19-9.88-45.68,44.37-.02,81.78,26.6,123.12,41.72,64.77,36.05,171.62-9.83,232.63-4.15,5.51-6.92,9.59-11.77,14.68-15.48,16.23-23.21,25.1-43.52,37.5-72.2,44.06-176.26,48.65-249.08,2.94-20.95-13.15-41.18-28.87-55.91-48.26-34.28-45.13-42.96-81.7-42.96-138.93,0-120.67,72.76-120.96,72.76-186.85,0-33.38-35.48-55.35-67.32-50.83-4.79.68-11.91.54-19.16,3.82-7.16,3.24-10.9,4.93-14.16,7.56-8.27,6.7-15.04,14.65-22.12,22.53-44.19,49.16-69.06,132.39-69.06,213.7,0,31.17,3.95,59.74,11.36,86.41h0ZM273.78,628.77"/>
</svg>